<svg height="682pt" viewBox="-21 -36 682.66535 682" width="682pt" xmlns="http://www.w3.org/2000/svg"><path d="m458.753906 436.996094 54.066406-31.429688c8-4.644531 8.058594-16.175781.109376-20.90625l-207.941407-123.773437c-7.363281-3.894531-17.957031-.59375-18.300781 10.238281h-.011719c0 .136719-.015625.269531-.015625.40625l4.398438 242.078125c.128906 6.980469 5.890625 11.921875 12.148437 11.921875 2.03125 0 4.117188-.515625 6.074219-1.660156l54.046875-31.414063 63.90625 110.105469c2.253906 3.882812 6.324219 6.046875 10.503906 6.046875 2.070313 0 4.164063-.53125 6.085938-1.644531l74.445312-43.273438c5.785157-3.363281 7.753907-10.785156 4.394531-16.578125zm0 0"/><path d="m563.527344-.667969h-487.058594c-42.234375 0-76.46875 34.238281-76.46875 76.46875v118.855469c0 42.230469 34.234375 76.46875 76.46875 76.46875h171.925781c.03125-13.234375 5.109375-25.664062 14.382813-35.109375 9.449218-9.617187 22.582031-15.140625 36.03125-15.140625 9.039062 0 17.949218 2.460938 25.765625 7.113281l72.464843 43.136719h166.496094c42.230469 0 76.464844-34.234375 76.464844-76.46875v-118.855469c0-42.230469-34.234375-76.46875-76.472656-76.46875zm-398.296875 195.636719c0 8.507812-5.625 16-13.800781 18.378906-1.765626.515625-3.570313.761719-5.339844.761719-6.433594.003906-12.578125-3.25-16.160156-8.878906l-40.253907-63.339844v49.855469c0 10.570312-8.566406 19.140625-19.140625 19.140625-10.570312 0-19.140625-8.570313-19.140625-19.140625v-115.664063c0-8.515625 5.621094-16.007812 13.796875-18.386719 8.171875-2.375 16.933594.929688 21.503906 8.117188l40.253907 63.34375v-53.074219c0-10.574219 8.566406-19.148437 19.140625-19.148437 10.570312 0 19.140625 8.574218 19.140625 19.148437zm86.320312-78.878906c10.574219 0 19.140625 8.570312 19.140625 19.140625 0 10.570312-8.566406 19.140625-19.140625 19.140625h-20.335937v21.457031h29.914062c10.570313 0 19.144532 8.566406 19.144532 19.140625 0 10.570312-8.574219 19.140625-19.144532 19.140625h-49.054687c-10.570313 0-19.140625-8.570313-19.140625-19.140625v-118.886719c0-10.574219 8.570312-19.148437 19.140625-19.148437h49.054687c10.570313 0 19.144532 8.574218 19.144532 19.148437 0 10.566407-8.574219 19.140625-19.144532 19.140625h-29.914062v20.863282h20.335937zm207.960938 60.558594c0 20.65625-15.429688 37.460937-34.398438 37.460937h-26.160156c-5.476563 0-10.65625-1.40625-15.257813-3.898437-4.605468 2.492187-9.78125 3.898437-15.257812 3.898437h-26.164062c-18.964844 0-34.398438-16.804687-34.398438-37.460937v-101.160157c0-10.570312 8.570312-19.140625 19.140625-19.140625s19.140625 8.570313 19.140625 19.140625v100.339844h18.394531v-48.097656c0-10.570313 8.570313-19.140625 19.140625-19.140625 10.570313 0 19.144532 8.570312 19.144532 19.140625v48.097656h18.394531v-100.339844c0-10.570312 8.570312-19.140625 19.140625-19.140625 10.570312 0 19.140625 8.570313 19.140625 19.140625zm129.09375-9.734376c0 26.023438-19.070313 47.195313-42.507813 47.195313h-39.660156c-10.570312 0-19.136719-8.570313-19.136719-19.140625 0-10.574219 8.566407-19.140625 19.136719-19.140625h39.660156c1.050782 0 4.222656-3.160156 4.222656-8.914063v-6.679687c0-5.746094-3.171874-8.910156-4.222656-8.910156h-22.316406c-23.4375 0-42.507812-21.167969-42.507812-47.191407 0-26.019531 19.070312-47.191406 42.507812-47.191406h31.964844c10.570312 0 19.140625 8.566406 19.140625 19.140625 0 10.570313-8.570313 19.140625-19.140625 19.140625h-31.964844c-1.046875 0-4.226562 3.15625-4.226562 8.910156 0 5.75 3.179687 8.910157 4.226562 8.910157h22.316406c23.4375 0 42.507813 21.171875 42.507813 47.191406zm0 0"/></svg>