<svg xmlns="http://www.w3.org/2000/svg" width="126.591" height="125.552"><defs><clipPath id="a"><path d="M0 94.164h94.943V0H0z"/></clipPath></defs><g clip-path="url(#a)" transform="matrix(1.33333 0 0 -1.33333 0 125.552)"><path fill="#826550" d="M90.284 65.774a47.213 47.213 0 0 1-8.509 13.097 303.51 303.51 0 0 0-1.975-3.778 43.133 43.133 0 0 0 6.422-10.013c1.34.24 2.695.466 4.062.694M90.009 50.6a43.07 43.07 0 0 0 .155-3.518C90.164 23.29 70.874 4 47.082 4c-.786 0-1.565.023-2.342.066.134-.57.229-1.177.219-1.84A6.607 6.607 0 0 0 44.556.07C45.393.025 46.235 0 47.082 0c25.96 0 47.082 21.121 47.082 47.082 0 2.09-.15 4.142-.416 6.16a38.223 38.223 0 0 0-3.74-2.642M4 47.082c0 23.794 19.288 43.082 43.082 43.082a42.87 42.87 0 0 0 21.568-5.793c1.084.859 2.211 1.736 3.362 2.624a46.793 46.793 0 0 1-24.93 7.169C21.121 94.164 0 73.043 0 47.082 0 27.275 12.3 10.299 29.657 3.357c-.4 1.498-.561 3.067-.569 4.582C14.283 14.757 4 29.714 4 47.082"/><path fill="#826550" d="M36.787 19.17c-1.856 9.003 7.01 16.95 11.896 9.252.26-7.418-6.18-15.768-11.896-9.252m10.295 28.913a2.584 2.584 0 1 0 0-5.168 2.584 2.584 0 0 0 0 5.168M38.77 9.258c7.738 2.72 16.312 9.662 14.54 19.826-.898 5.145-4.48 5-7.27 9.252 14.437 11.997 24.212 28.656 33.043 46.26H77.1c-7.446-5.66-21.91-16.982-28.417-26.434-2.603-3.78-4.593-9.313-7.27-13.878-4.542-7.745-15.125-21.23-6.608-31.061C33.425 8.603 33.6.833 38.77.666c3.27 1.727-1.384 4.604.001 8.592"/><path fill="#826550" d="M55.953 42.96c13.963 5.204 30.577 7.754 38.99 18.506-9.414-1.38-18.119-3.47-27.756-4.626-2.133-6.236-7.03-9.711-11.234-13.88M17.622 46.927c-5.123 10.84 12.891 11.066 14.54 5.287 2.177-7.632-9.099-8.033-14.54-5.287m-5.287 7.27c-4.223-12.249 8.425-15.99 21.81-13.879 3.784 4.814 5.85 9.964 1.982 15.861-4.894 7.461-20.91 6.373-23.792-1.983"/></g></svg>