<svg xmlns="http://www.w3.org/2000/svg" width="301.084" height="40.053"><defs><clipPath id="a"><path d="M0 30.04h225.813V0H0z"/></clipPath></defs><path fill="#fff" d="M0 17.564l4.659 4.658 4.658-4.658-4.658-4.66zM296.152 17.578l-4.657 4.657-4.66-4.659 4.657-4.658z"/><path fill="#636466" d="M38.137 17.73h1.697v-6.785h2.67V9.248h-4.367z"/><g clip-path="url(#a)" transform="matrix(1.33333 0 0 -1.33333 0 40.053)"><path fill="#636466" d="M37.706 15.809v7.753c0 1.097-.653 2.032-1.567 2.487.181-.368.293-.776.293-1.213v-7.753c0-.865-.375-1.62-1.016-2.146.563-.603 1.016-1.28 1.016-2.26V4.06c0-1.505-1.28-2.785-2.786-2.785H25.36V0h9.562c1.505 0 2.785 1.28 2.785 2.786v8.619c0 .978-.45 1.656-1.017 2.259a2.73 2.73 0 0 1 1.017 2.145"/><path fill="#636466" d="M28.602 5.828h1.273v5.125h2.002v1.273h-3.275zM48.778 5.828h1.273V21.83h2.002v1.273h-3.275z"/><path fill="#636466" d="M56.313 26.048c.184-.368.294-.776.294-1.213V4.058c0-1.505-1.279-2.785-2.785-2.785h-6.774c-.438 0-.846.112-1.214.295C46.29.652 47.224 0 48.32 0h6.775C56.6 0 57.88 1.28 57.88 2.785v20.776c0 1.097-.652 2.032-1.567 2.487M68.954 16.743h1.273v5.088h2.001v1.273h-3.274zM76.439 11.217a2.728 2.728 0 0 1 1.58 2.484v9.86c0 1.11-.647 2.057-1.568 2.505.183-.372.296-.786.296-1.231v-9.861a2.733 2.733 0 0 0-1.581-2.484l1.88-11.217H73.59L73.803 0h4.517zM70.686 12.227h-1.732V1.273h-3.243V0h4.517v10.954h.672zM88.527 5.828h1.274V21.83h2.002v1.273h-3.276z"/><path fill="#636466" d="M96.064 26.048a2.71 2.71 0 0 0 .293-1.213V4.058c0-1.505-1.278-2.785-2.785-2.785h-6.776c-.437 0-.845.112-1.212.294C86.038.652 86.972 0 88.069 0h6.775c1.505 0 2.785 1.28 2.785 2.785v20.776c.002 1.097-.651 2.032-1.565 2.487M108.704 5.828h1.272V21.83h2.002v1.273h-3.274z"/><path fill="#636466" d="M116.24 26.048c.181-.368.293-.776.293-1.213V4.058c0-1.505-1.28-2.785-2.785-2.785h-8.288V0h9.56c1.505 0 2.784 1.28 2.784 2.785v20.776c.001 1.097-.65 2.032-1.565 2.487M129.106 26.347V1.273h-3.244V0h4.517v26.347zM149.206 26.347V1.273h-3.61L145.962 0h4.516v26.347zM141.376 12.791V1.272h-3.242V0h4.514v8.363zM161.095 10.953h3.732v1.272h-5.006a2.75 2.75 0 0 0-1.222.291 2.774 2.774 0 0 1 2.496-1.563M162.824 9.26l-1.27-.297V5.828h1.27zM169.087 26.048c.183-.368.294-.776.294-1.213V19.49l-3.281-.759v-1.568l4.554 1.054v5.344c-.001 1.097-.652 2.032-1.567 2.487"/><path fill="#636466" d="M169.087 15.17c.183-.368.294-.776.294-1.213V4.058c0-1.505-1.28-2.785-2.785-2.785h-6.775c-.437 0-.846.112-1.214.295C159.06.652 159.997 0 161.095 0h6.774c1.506 0 2.784 1.28 2.784 2.785v9.9c0 1.096-.65 2.03-1.566 2.485M161.553 23.104v-6.361h1.27v5.088h2.004v1.273zM182.143 12.227h-.414V1.273h-3.245V0h4.518v9.489zM191.394 26.347h-1.682l-3.806-11.862 4.216-13.212h-3.67l.35-1.123.039-.15h4.554l-4.215 13.21zM202.017 26.347V1.273h-3.244V0h4.517v26.347zM221.047 10.951l3.493 3.494 1.274-1.272-3.494-3.494zM5.915 10.953l3.494 3.494 1.274-1.273L7.188 9.68z"/><path fill="#fff" d="M29.459 14.645h-3.275V8.247h3.275zm0 10.878h-3.275v-6.361h3.275zm4.554-6.023c0-.865-.376-1.619-1.016-2.146.564-.602 1.016-1.278 1.016-2.256v-8.62c0-1.506-1.281-2.786-2.785-2.786h-9.56V30.04h9.56c1.504 0 2.785-1.243 2.785-2.787zM49.634 25.523h-3.275V8.246h3.275zm1.768 4.517c1.506 0 2.786-1.243 2.786-2.787V6.478c0-1.506-1.28-2.786-2.786-2.786h-6.774c-1.543 0-2.786 1.28-2.786 2.786v20.775a2.781 2.781 0 0 0 2.786 2.787zM69.81 25.523h-3.274v-6.361h3.274zm.3-21.831l-1.844 10.953h-1.732V3.692h-4.516V30.04h9.561c1.505 0 2.748-1.243 2.748-2.787v-9.86a2.73 2.73 0 0 0-1.581-2.484l1.882-11.217zM89.384 25.523h-3.275V8.246h3.275zm1.768 4.517c1.506 0 2.785-1.243 2.785-2.787V6.478c0-1.506-1.279-2.786-2.785-2.786h-6.774c-1.543 0-2.785 1.28-2.785 2.786v20.775a2.78 2.78 0 0 0 2.785 2.787zM109.559 25.523h-3.274V8.246h3.274zm1.77 4.517c1.505 0 2.784-1.243 2.784-2.787V6.478c0-1.506-1.278-2.786-2.784-2.786h-9.561V30.04zM122.17 30.04h4.517V3.693h-4.517zM146.785 30.04V3.693h-4.517l-3.31 11.517V3.693h-4.519V30.04h4.48l3.311-10.803V30.04zM164.177 19.163c1.504 0 2.785-1.242 2.785-2.785v-9.9c0-1.505-1.281-2.784-2.785-2.784H157.4c-1.544 0-2.785 1.279-2.785 2.785v5.42l4.516 1.055V8.248h3.274v6.398H157.4a2.779 2.779 0 0 0-2.785 2.786v9.822a2.779 2.779 0 0 0 2.785 2.786h6.775c1.504 0 2.785-1.242 2.785-2.786V21.91l-4.555-1.054v4.668h-3.275v-6.361zM183.485 16.904l4.217-13.21h-4.555l-.038.15-3.388 10.802h-.415V3.694h-4.515V30.04h4.515V19.163h.34l3.463 10.877h4.593zM195.081 30.04h4.516V3.693h-4.516z"/></g></svg>